<?xml version="1.0" encoding="UTF-8"?><svg id="Layer_1" xmlns="http://www.w3.org/2000/svg" viewBox="0 0 925.89 500"><defs><style>.cls-1{fill:#30333a;}.cls-2{fill:#0e9648;}</style></defs><g><path class="cls-1" d="m461.84,217.64l-11.04,1.76v85.28c0,10.72-2.24,16.8-8.32,25.12l-15.68,21.28c-3.68-.16-7.2-1.6-9.12-3.84l10.72-29.76v-98.08l-13.44-1.76v-1.44c0-3.68.96-7.36,2.56-9.44h45.92l-1.6,10.88Z"/><path class="cls-1" d="m566.83,306.44c0,3.36-.96,7.36-2.56,9.44h-44.32l1.6-10.88,12.8-1.76-9.44-27.2-31.2,1.92-8.8,25.28,13.6,1.76v1.44c0,3.36-.96,7.36-2.4,9.44h-36l1.44-10.88,7.2-1.76,36.32-96.48,17.92-1.6,35.04,98.08,8.8,1.76v1.44Zm-56.48-73.44h-1.44l-11.36,33.12h24l-11.2-33.12Z"/><path class="cls-1" d="m620.51,315.88h-49.12l1.44-10.88,11.52-1.76v-83.84l-12.8-1.76v-1.44c0-3.36.8-7.36,2.4-9.44h46.88c30.88,0,53.76,18.24,53.76,54.08s-25.12,55.04-54.08,55.04Zm-1.28-96.64h-12.32v83.36l16.96,1.44c13.12-3.36,25.76-14.88,25.76-43.2,0-32-13.76-41.6-30.4-41.6Z"/><path class="cls-1" d="m679.38,315.88l1.44-10.88,11.52-1.76v-83.84l-12.8-1.76v-1.44c0-3.36.8-7.36,2.4-9.44h58.08l20.32-1.6v30.72c-2.56,1.6-7.2,2.4-10.72,2.4h-1.76l-4.64-18.88h-28.32v35.04h33.76c.48,2.08.8,4.64.8,6.88s-.32,4.64-.8,6.72l-13.76-1.12h-20v37.12l30.56-1.6,4.64-18.88h1.76c3.52,0,8.16.96,10.72,2.56v29.76h-83.2Z"/></g><g id="Layer_1-2"><g><path class="cls-2" d="m128.21,260.97c1.72,0,3.01.43,4.73.43,9.89.86,18.93,3.87,27.96,8.17,16.78,8.6,29.25,21.08,37.86,37.86,4.73,9.03,7.31,18.93,8.17,29.25.43,2.58.43,5.16.43,7.74v33.13c0,.86-.43.86-1.29.86-10.76-.86-21.08-3.44-30.55-8.17-16.35-8.17-28.82-20.22-37.43-36.14-4.73-8.6-7.31-17.64-8.6-27.1-.43-2.15-.43-4.3-.86-6.45v-.43c-.43-13.34-.43-26.24-.43-39.15Z"/><path class="cls-2" d="m306.31,211.5v84.32c0,18.07-5.59,34.85-16.78,49.47-12.48,16.35-28.82,26.67-48.61,31.41-4.3.86-8.17,1.29-12.48,1.72q-.86,0-.86-.86v-172.95c0-21.94,7.74-41.3,22.8-57.22,11.62-12.05,25.38-19.79,41.73-23.66,4.3-.86,9.03-1.72,13.34-2.15q.86,0,.86.86c0,29.68,0,59.37,0,89.05Z"/></g></g></svg>